<svg width="375" height="112" viewBox="0 0 375 112" fill="none" xmlns="http://www.w3.org/2000/svg">
    <path fill-rule="evenodd" clip-rule="evenodd"
        d="M259.4 32.7019C262.274 33.7523 263.753 36.9338 262.702 39.8081L258.555 51.1592C257.504 54.0335 254.323 55.5121 251.449 54.4618L240.978 50.6358L230.124 54.3402L232.672 47.6007L231.018 46.9962C228.143 45.9459 226.665 42.7644 227.715 39.89L231.863 28.539C232.913 25.6647 236.095 24.186 238.969 25.2363L259.4 32.7019Z"
        fill="#BBCEFF" />
    <path
        d="M251.445 37.6732C251.28 37.318 251.046 36.9988 250.758 36.7338C250.469 36.4687 250.131 36.2631 249.763 36.1286C249.395 35.9941 249.004 35.9334 248.613 35.9499C248.221 35.9665 247.837 36.0599 247.482 36.225L246.745 36.5673L246.402 35.8304C246.068 35.1131 245.463 34.5576 244.72 34.286C243.977 34.0144 243.156 34.049 242.438 34.3821C241.721 34.7153 241.165 35.3197 240.894 36.0624C240.623 36.8051 240.658 37.6253 240.991 38.3425L241.334 39.0794L243.85 44.488L249.261 41.9759L249.998 41.6336C250.353 41.4687 250.673 41.2355 250.938 40.9472C251.203 40.6589 251.408 40.3212 251.543 39.9534C251.677 39.5857 251.738 39.195 251.721 38.8037C251.704 38.4125 251.61 38.0283 251.445 37.6732Z"
        fill="white" />
    <path fill-rule="evenodd" clip-rule="evenodd"
        d="M126.23 19.5514C126.963 19.629 127.495 20.2862 127.417 21.0194L126.114 33.3377C126.036 34.0709 125.379 34.6024 124.646 34.5248L122.616 34.31C122.016 34.2465 121.477 34.6818 121.414 35.2824L121.125 38.013C121.096 38.2894 120.749 38.3961 120.57 38.1841L116.758 33.6901L105.892 32.5401C105.159 32.4626 104.627 31.8053 104.705 31.0722L106.008 18.7538C106.086 18.0206 106.743 17.4892 107.476 17.5668L126.23 19.5514Z"
        fill="white" />
    <path fill-rule="evenodd" clip-rule="evenodd"
        d="M91.4046 22.2753C90.4514 22.1744 89.5969 22.8653 89.4961 23.8186L87.8012 39.834C87.7004 40.7872 88.3913 41.6417 89.3445 41.7426L91.9828 42.0218C92.7636 42.1044 93.3297 42.8044 93.247 43.5853L92.848 47.3558C92.8188 47.6321 93.1349 47.8089 93.355 47.6393L99.5991 42.8278L113.727 44.3229C114.68 44.4238 115.535 43.7328 115.636 42.7796L117.33 26.7641C117.431 25.8109 116.74 24.9564 115.787 24.8555L91.4046 22.2753Z"
        fill="#BBCEFF" />
    <ellipse cx="96.5008" cy="32.4819" rx="1.7525" ry="1.78686" transform="rotate(6.04081 96.5008 32.4819)"
        fill="white" />
    <circle cx="102.549" cy="33.1209" r="1.78686" transform="rotate(6.04081 102.549 33.1209)" fill="white" />
    <ellipse cx="108.597" cy="33.7605" rx="1.7525" ry="1.78686" transform="rotate(6.04081 108.597 33.7605)"
        fill="white" />
    <path fill-rule="evenodd" clip-rule="evenodd"
        d="M383.882 66.7313C384.407 66.5446 384.984 66.8188 385.171 67.3438L388.308 76.164C388.495 76.689 388.221 77.2659 387.696 77.4526L386.186 77.9893C385.787 78.1313 385.579 78.5698 385.721 78.9688L386.45 81.0181C386.515 81.2017 386.329 81.3741 386.151 81.2946L382.048 79.4612L374.267 82.2285C373.743 82.4152 373.166 82.141 372.979 81.6161L369.842 72.7959C369.655 72.2709 369.929 71.694 370.454 71.5073L383.882 66.7313Z"
        fill="white" />
    <path fill-rule="evenodd" clip-rule="evenodd"
        d="M361.041 79.9676C360.359 80.2104 360.002 80.9604 360.245 81.6429L364.324 93.1104C364.566 93.7929 365.317 94.1494 365.999 93.9066L367.961 93.2088C368.48 93.0243 369.05 93.2952 369.235 93.814L370.234 96.6247C370.3 96.8083 370.553 96.8243 370.641 96.6503L373.342 91.2952L383.457 87.6973C384.14 87.4546 384.496 86.7045 384.254 86.022L380.175 74.5546C379.932 73.872 379.182 73.5155 378.5 73.7583L361.041 79.9676Z"
        fill="#BBCEFF" />
    <ellipse cx="367.849" cy="85.2573" rx="1.32427" ry="1.35023" transform="rotate(-19.5786 367.849 85.2573)"
        fill="white" />
    <circle cx="372.179" cy="83.7163" r="1.35023" transform="rotate(-19.5786 372.179 83.7163)" fill="white" />
    <ellipse cx="376.51" cy="82.1758" rx="1.32427" ry="1.35023" transform="rotate(-19.5786 376.51 82.1758)"
        fill="white" />
    <circle cx="307.182" cy="57.0199" r="18.4807" transform="rotate(-167.12 307.182 57.0199)" fill="#BBCEFF" />
    <path fill-rule="evenodd" clip-rule="evenodd"
        d="M315.425 51.2051C316.017 51.2677 316.446 51.7981 316.383 52.3896L315.331 62.3291C315.269 62.9207 314.738 63.3495 314.147 63.2869L312.701 63.1339C312.111 63.0714 311.581 63.4996 311.519 64.0901L311.32 65.972C311.291 66.2438 310.951 66.3487 310.774 66.1403L307.783 62.6134L299.015 61.6856C298.423 61.6229 297.994 61.0926 298.057 60.5011L299.109 50.5616C299.171 49.97 299.702 49.5412 300.293 49.6038L315.425 51.2051Z"
        fill="white" />
    <circle cx="47.2827" cy="54.8169" r="4.17792" transform="rotate(-90 47.2827 54.8169)" fill="#BBCEFF" />
    <circle cx="272.695" cy="65.295" r="3.40298" transform="rotate(-90 272.695 65.295)" fill="#BBCEFF" />
    <ellipse cx="356.16" cy="58.7347" rx="2.61063" ry="2.61063" transform="rotate(-148.195 356.16 58.7347)"
        fill="#BBCEFF" />
    <ellipse cx="0.553986" cy="102.241" rx="3.14114" ry="3.14114" transform="rotate(-90 0.553986 102.241)"
        fill="#BBCEFF" />
    <ellipse cx="99.9825" cy="90.6371" rx="3.14114" ry="3.14114" transform="rotate(-108.871 99.9825 90.6371)"
        fill="#BBCEFF" />
    <circle cx="2.87938" cy="2.87938" r="2.87938" transform="matrix(-4.37114e-08 -1 -1 4.37114e-08 309.936 107.037)"
        fill="#BBCEFF" />
    <circle cx="175.708" cy="36.9522" r="3.19285" transform="rotate(-90 175.708 36.9522)" fill="#BBCEFF" />
    <circle cx="135.116" cy="76.0508" r="18.2287" transform="rotate(-22.3866 135.116 76.0508)" fill="#BBCEFF" />
    <path
        d="M141.901 71.782C143.138 71.9474 143.733 73.3902 142.971 74.3791L135.521 84.0481C134.759 85.0369 133.213 84.8302 132.737 83.6759L128.088 72.3898C127.613 71.2356 128.565 69.9995 129.803 70.1649L141.901 71.782Z"
        fill="white" />
    <path
        d="M265.951 84.9548L240.972 91.807C240.421 91.9582 240.097 92.5276 240.248 93.0788L245.165 111.002C245.316 111.553 245.885 111.877 246.437 111.726L271.416 104.874C271.967 104.723 272.291 104.153 272.14 103.602L267.223 85.6791C267.072 85.1279 266.503 84.8036 265.951 84.9548Z"
        fill="#BBCEFF" />
    <path
        d="M240.248 93.0788C240.097 92.5276 240.421 91.9582 240.972 91.807L265.951 84.9548C266.503 84.8036 267.072 85.1279 267.223 85.6791L267.702 87.4257L240.727 94.8254L240.248 93.0788Z"
        fill="white" />
    <path
        d="M242.483 93.4046C242.758 93.329 242.92 93.0443 242.845 92.7687C242.769 92.4931 242.484 92.331 242.209 92.4065C241.934 92.4821 241.771 92.7668 241.847 93.0424C241.923 93.318 242.207 93.4801 242.483 93.4046Z"
        fill="#E4ECFF" />
    <path
        d="M244.021 92.9828C244.296 92.9072 244.458 92.6225 244.383 92.3469C244.307 92.0713 244.023 91.9092 243.747 91.9847C243.472 92.0603 243.31 92.345 243.385 92.6206C243.461 92.8962 243.745 93.0583 244.021 92.9828Z"
        fill="#E4ECFF" />
    <path
        d="M245.559 92.5608C245.834 92.4852 245.996 92.2005 245.921 91.9249C245.845 91.6493 245.561 91.4872 245.285 91.5627C245.01 91.6383 244.848 91.923 244.923 92.1986C244.999 92.4742 245.283 92.6363 245.559 92.5608Z"
        fill="#E4ECFF" />
    <path
        d="M262.413 87.0432L247.658 91.0907C247.474 91.1411 247.366 91.331 247.417 91.5147C247.467 91.6984 247.657 91.8065 247.841 91.7561L262.596 87.7086C262.779 87.6582 262.887 87.4684 262.837 87.2846C262.787 87.1009 262.597 86.9928 262.413 87.0432Z"
        fill="#E4ECFF" />
    <path
        d="M262.983 98.2444C263.313 99.4485 263.304 100.72 262.957 101.92C262.61 103.119 261.938 104.198 261.016 105.039C260.094 105.88 258.957 106.449 257.731 106.684C256.505 106.918 255.239 106.809 254.071 106.369C252.903 105.928 251.88 105.173 251.114 104.187C250.348 103.201 249.87 102.022 249.732 100.781C249.594 99.5402 249.802 98.2855 250.332 97.1555C250.863 96.0255 251.695 95.0643 252.738 94.3783L256.457 100.035L262.983 98.2444Z"
        fill="#E4ECFF" />
    <path
        d="M253.233 93.4452C254.125 92.8582 255.143 92.4907 256.205 92.3728C257.266 92.255 258.34 92.3901 259.339 92.7672C260.339 93.1443 261.235 93.7525 261.954 94.5423C262.673 95.3321 263.195 96.281 263.478 97.3113L256.953 99.1014L253.233 93.4452Z"
        fill="white" />
    <path
        d="M-0.314298 90.871C10.5093 92.0647 20.2514 84.2581 21.4451 73.4345C22.6388 62.6108 14.8322 52.8688 4.00858 51.6751C-6.81506 50.4814 -16.5571 58.288 -17.7508 69.1116C-18.9445 79.9353 -11.1379 89.6773 -0.314298 90.871Z"
        fill="#BBCEFF" />
    <path fill-rule="evenodd" clip-rule="evenodd"
        d="M-7.06684 64.5033C-7.04924 64.3438 -6.90562 64.2287 -6.74604 64.2463L11.7654 66.2879C11.9249 66.3055 12.04 66.4491 12.0224 66.6087L10.8101 77.6006C10.7925 77.7602 10.6489 77.8753 10.4893 77.8577L-8.02207 75.8161C-8.18164 75.7985 -8.29674 75.6549 -8.27914 75.4953L-7.06684 64.5033ZM-6.55484 62.5126C-7.67187 62.3895 -8.67726 63.1951 -8.80046 64.3121L-10.0128 75.3041C-10.1359 76.4211 -9.3303 77.4265 -8.21327 77.5497L-2.01947 78.2328L-2.24283 80.2581L4.1197 80.9598L4.34307 78.9345L10.2981 79.5913C11.4152 79.7145 12.4206 78.9089 12.5438 77.7918L13.7561 66.7999C13.8792 65.6829 13.0736 64.6775 11.9566 64.5543L-6.55484 62.5126Z"
        fill="white" />
    <path
        d="M376.381 11.5149L339.842 1.93978C339.28 1.79238 338.704 2.12888 338.557 2.69137L331.084 31.2091C330.936 31.7716 331.273 32.3471 331.835 32.4945L368.374 42.0696C368.936 42.217 369.512 41.8805 369.659 41.318L377.132 12.8003C377.28 12.2378 376.943 11.6623 376.381 11.5149Z"
        fill="white" />
    <path
        d="M374.699 12.6332L340.733 3.73231C340.273 3.61168 339.802 3.88706 339.681 4.3474L333.584 27.6163C333.463 28.0767 333.738 28.5476 334.199 28.6683L368.164 37.5692C368.625 37.6898 369.096 37.4144 369.216 36.9541L375.314 13.6852C375.435 13.2248 375.159 12.7539 374.699 12.6332Z"
        fill="#E4ECFF" />
    <path
        d="M343.067 12.5513C344.553 12.9408 346.074 12.0516 346.464 10.5651C346.853 9.07855 345.964 7.55771 344.477 7.16817C342.991 6.77862 341.47 7.66788 341.081 9.15438C340.691 10.6409 341.58 12.1617 343.067 12.5513Z"
        fill="#BBCEFF" />
    <path
        d="M345.329 10.1397C345.407 10.2174 345.372 10.3499 345.266 10.3795L342.713 11.0952C342.607 11.1251 342.508 11.0278 342.536 10.9205L343.215 8.32904C343.243 8.22178 343.377 8.18547 343.455 8.26395L345.329 10.1397Z"
        fill="white" />
    <mask id="mask0_2656_589" style="mask-type:alpha" maskUnits="userSpaceOnUse" x="325" y="0" width="58" height="40">
        <rect x="332.368" y="0.273468" width="52.0806" height="27.0113" transform="rotate(14.6845 332.368 0.273468)"
            fill="#0391FA" />
    </mask>
    <g mask="url(#mask0_2656_589)">
        <path
            d="M349.184 59.2484L340.313 56.9236C336.812 56.0063 334.718 52.4257 335.636 48.9251L340.055 32.0613C340.972 28.5606 343.612 27.0566 348.054 27.3844L353.344 26.4855L356.82 29.9972C360.811 31.8843 362.627 33.7965 361.709 37.2971L357.182 54.5725C356.265 58.0731 352.684 60.1667 349.184 59.2494L349.184 59.2484Z"
            fill="#BBCEFF" />
        <path
            d="M355.89 23.9204C356.187 22.7894 355.51 21.6321 354.379 21.3357C353.248 21.0393 352.091 21.716 351.794 22.8471L350.626 27.3041C350.33 28.4352 351.006 29.5924 352.137 29.8888C353.269 30.1852 354.426 29.5085 354.722 28.3775L355.89 23.9204Z"
            fill="#BBCEFF" />
        <path
            d="M355.827 24.1624L351.731 23.089L351.209 25.0825C351.422 25.1811 351.645 25.2614 351.877 25.3221C353.173 25.6617 354.53 25.3331 355.737 24.5119L355.828 24.1636L355.827 24.1624Z"
            fill="#BBCEFF" />
        <path
            d="M357.325 13.5112L355.767 13.103C353.797 12.5867 351.781 13.7654 351.265 15.7358L350.157 19.9613C349.641 21.9317 350.82 23.9476 352.79 24.464L354.348 24.8721C356.318 25.3885 358.334 24.2098 358.85 22.2394L359.958 18.0139C360.474 16.0435 359.295 14.0276 357.325 13.5112Z"
            fill="#BBCEFF" />
        <path
            d="M350.69 16.8784C350.69 16.8784 351.893 17.2279 352.911 16.0929C354.283 19.4164 360.623 19.6253 360.623 19.6253C360.623 19.6253 361.529 16.107 360.698 14.325C359.904 12.6225 358.91 11.566 357.076 11.1592C355.306 10.7665 353.984 11.2021 352.593 12.3653C351.444 13.326 350.551 15.3873 350.69 16.8784Z"
            fill="white" />
        <circle cx="355.096" cy="11.0518" r="2.43693" transform="rotate(14.6845 355.096 11.0518)" fill="white" />
    </g>
    <g opacity="0.3">
        <path d="M368.679 39.1071L336.915 30.7832L336.751 31.4082L368.515 39.7321L368.679 39.1071Z" fill="white" />
    </g>
    <path
        d="M353.708 35.1808L333.335 29.842C333.159 29.7957 332.978 29.9013 332.932 30.0778C332.886 30.2543 332.991 30.4348 333.168 30.4811L353.541 35.8199C353.717 35.8662 353.898 35.7606 353.944 35.5841C353.99 35.4076 353.885 35.227 353.708 35.1808Z"
        fill="#BBCEFF" />
    <path
        d="M53.0038 2.94497L16.2875 10.5393C15.0717 10.7908 14.2899 11.9803 14.5414 13.1961L19.9906 39.5413C20.2421 40.7571 21.4316 41.5389 22.6474 41.2874L59.3637 33.693C60.5795 33.4415 61.3613 32.2521 61.1098 31.0362L55.6606 4.69108C55.4091 3.47524 54.2196 2.69348 53.0038 2.94497Z"
        fill="#E4ECFF" stroke="white" stroke-width="1.5" />
    <path
        d="M15.2758 13.0442C15.1083 12.234 15.6293 11.4413 16.4392 11.2738L53.1559 3.67937C53.9659 3.51185 54.7586 4.03276 54.9262 4.84298L55.4572 7.4103L15.8069 15.6115L15.2758 13.0442Z"
        fill="white" />
    <path
        d="M18.4738 13.7207C18.8787 13.6369 19.139 13.2406 19.0552 12.8355C18.9715 12.4304 18.5753 12.1699 18.1704 12.2537C17.7655 12.3374 17.5052 12.7337 17.589 13.1388C17.6728 13.5439 18.0689 13.8044 18.4738 13.7207Z"
        fill="#E4ECFF" />
    <path
        d="M20.7346 13.2532C21.1395 13.1695 21.3998 12.7732 21.316 12.3681C21.2322 11.963 20.836 11.7025 20.4311 11.7862C20.0262 11.87 19.7659 12.2663 19.8497 12.6714C19.9335 13.0765 20.3297 13.337 20.7346 13.2532Z"
        fill="#E4ECFF" />
    <path
        d="M22.9956 12.7855C23.4005 12.7017 23.6608 12.3054 23.577 11.9003C23.4932 11.4952 23.097 11.2347 22.6921 11.3185C22.2872 11.4022 22.0269 11.7985 22.1107 12.2036C22.1945 12.6087 22.5907 12.8692 22.9956 12.7855Z"
        fill="#E4ECFF" />
    <path
        d="M47.8521 6.36981L26.1641 10.8557C25.894 10.9116 25.7203 11.1758 25.7762 11.4459C25.8321 11.716 26.0963 11.8896 26.3663 11.8338L48.0544 7.34782C48.3245 7.29196 48.4981 7.02774 48.4423 6.75767C48.3864 6.4876 48.1222 6.31395 47.8521 6.36981Z"
        fill="#E4ECFF" />
    <mask id="mask1_2656_589" style="mask-type:alpha" maskUnits="userSpaceOnUse" x="17" y="7" width="42" height="34">
        <rect width="37.0088" height="25.7453" transform="matrix(-0.981985 0.188961 0.188961 0.981985 53.6846 7.85898)"
            fill="#91B1FF" />
    </mask>
    <g mask="url(#mask1_2656_589)">
        <path d="M41.4005 29.8283L36.8773 30.6987L36.118 24.8382L39.9306 24.1045L41.4005 29.8283Z" fill="#BBCEFF" />
        <path
            d="M33.0256 21.5062L32.943 21.5221C32.3614 21.634 31.9808 22.196 32.0927 22.7776L32.1248 22.9444C32.2367 23.5259 32.7987 23.9066 33.3803 23.7947L33.4629 23.7788L33.0259 21.5076L33.0256 21.5062Z"
            fill="#BBCEFF" />
        <path opacity="0.25"
            d="M36.3568 26.9908C37.6117 27.8973 40.8023 27.2833 40.8023 27.2833L40.434 26.0712L36.3568 26.9908Z"
            fill="#BBCEFF" />
        <path
            d="M39.2683 26.7341L37.7079 27.0344C35.7624 27.4087 33.8818 26.1351 33.5075 24.1896L32.7995 20.5105C32.4251 18.565 33.6988 16.6844 35.6442 16.3101L37.2046 16.0098C39.1501 15.6354 41.0307 16.9091 41.405 18.8545L42.113 22.5337C42.4874 24.4792 41.2137 26.3597 39.2683 26.7341Z"
            fill="#BBCEFF" />
        <path
            d="M31.9631 31.6135C32.7824 31.1609 36.4504 28.8148 36.5194 28.7669L36.4438 27.6084C36.4438 27.6084 36.7077 28.284 38.6929 27.8779C40.4812 27.5113 40.6813 26.793 40.6813 26.793L41.0411 27.8968C41.1232 27.9171 44.4983 27.9395 46.0188 28.4329C48.2852 29.1683 51.5288 35.5523 51.6636 36.2527C51.8277 37.1054 44.7376 41.5734 41.5178 42.199C41.4961 42.2031 41.4743 42.2073 41.4511 42.2118C41.4294 42.216 41.4076 42.2202 41.3844 42.2246C38.1609 42.8389 30.6103 43.8957 30.4465 43.0445C30.3117 42.344 29.2978 33.0859 31.9631 31.6135Z"
            fill="#BBCEFF" />
        <path
            d="M38.8274 15.4002C39.5198 15.6205 40.0037 15.7745 40.2533 15.33C40.6681 14.5907 41.2649 15.3393 40.8045 16.4763C41.0717 16.3351 41.3022 16.2459 41.4578 16.2931C42.0223 16.4642 41.8829 17.1755 41.1892 17.7953C41.8361 18.0541 42.3552 18.4036 42.2461 18.8434C42.1485 19.2367 41.4653 19.1863 40.4933 19.1147C38.8757 18.9955 36.4584 18.8174 34.6097 20.5267C34.2133 21.0349 34.0698 21.6503 34.1408 22.1877C34.1703 22.411 34.2107 22.6008 34.2453 22.7632C34.3448 23.2299 34.3959 23.4698 33.9997 23.6234C33.4657 23.8305 33.307 23.548 33.2005 22.9947C33.0226 22.0702 32.6848 21.8941 32.4508 21.7423C32.4463 21.7393 32.4553 21.7454 32.4508 21.7423C31.6456 20.4611 31.8083 17.485 34.1915 15.8861C36.1748 14.5561 37.7523 15.0581 38.8274 15.4002Z"
            fill="white" />
        <path fill-rule="evenodd" clip-rule="evenodd"
            d="M38.5558 23.73C37.9698 24.3241 35.7644 24.4416 36.4203 24.1196C36.7982 23.934 37.0133 23.6691 37.2041 23.434C37.4022 23.19 37.5742 22.978 37.8752 22.9201C38.1092 22.8751 38.2807 22.8901 38.4045 22.9433C38.4998 22.848 38.6534 22.7704 38.8873 22.7254C39.1883 22.6675 39.4267 22.8005 39.7012 22.9535C39.9657 23.1011 40.2637 23.2673 40.6835 23.2993C41.4121 23.3549 39.3203 24.0643 38.5558 23.73Z"
            fill="white" />
    </g>
    <circle cx="67.0419" cy="86.9543" r="11.7046" transform="rotate(-41.4661 67.0419 86.9543)" fill="#BBCEFF" />
    <path fill-rule="evenodd" clip-rule="evenodd"
        d="M70.9696 82.7324L71.0156 82.7165C71.1569 82.6677 71.311 82.7426 71.3598 82.8838L72.9519 87.4868C73.0007 87.628 72.9258 87.7821 72.7846 87.8309L72.7386 87.8469C72.6042 87.8927 72.4572 87.8839 72.3293 87.8224L70.4639 86.9158L70.9946 88.4501C71.19 89.015 70.8904 89.6314 70.3255 89.8268L64.1882 91.9495C63.6232 92.1449 63.0069 91.8454 62.8115 91.2804L61.0425 86.166C60.8471 85.6011 61.1467 84.9847 61.7116 84.7893L67.8489 82.6666C68.4138 82.4712 69.0302 82.7707 69.2256 83.3357L69.7563 84.87L70.6629 83.0046C70.7255 82.8771 70.8356 82.7794 70.9696 82.7324ZM63.1839 87.3905C63.2394 87.551 63.3989 87.6415 63.5402 87.5926L64.0516 87.4157C64.1928 87.3669 64.2623 87.1972 64.2068 87.0367L64.054 86.595C63.9985 86.4345 63.839 86.344 63.6978 86.3929L63.1864 86.5698C63.0451 86.6186 62.9756 86.7883 63.0311 86.9488L63.1839 87.3905Z"
        fill="white" />
    <circle cx="334.529" cy="93.3694" r="9.60642" transform="rotate(-4.94817 334.529 93.3694)" fill="#BBCEFF" />
    <path fill-rule="evenodd" clip-rule="evenodd"
        d="M339.182 92.5033L339.22 92.5153C339.337 92.5521 339.402 92.6767 339.365 92.7937L338.167 96.6074C338.13 96.7244 338.006 96.7895 337.889 96.7527L337.851 96.7408C337.739 96.7054 337.647 96.6278 337.592 96.5247L336.805 95.0156L336.406 96.2869C336.259 96.7549 335.76 97.0152 335.292 96.8681L330.207 95.2709C329.739 95.1239 329.479 94.6252 329.626 94.1572L330.957 89.9197C331.104 89.4517 331.602 89.1914 332.07 89.3384L337.155 90.9357C337.623 91.0827 337.884 91.5814 337.737 92.0494L337.337 93.3207L338.846 92.533C338.95 92.4795 339.07 92.4689 339.182 92.5033ZM331.771 91.7733C331.729 91.9062 331.79 92.0438 331.907 92.0806L332.331 92.2137C332.448 92.2504 332.577 92.1724 332.619 92.0395L332.734 91.6735C332.775 91.5405 332.714 91.4029 332.597 91.3662L332.174 91.2331C332.057 91.1963 331.928 91.2743 331.886 91.4073L331.771 91.7733Z"
        fill="white" />
    <path
        d="M220.089 68.8407L181.002 59.1881C180.022 58.946 179.031 59.5445 178.789 60.5248L172.176 87.302C171.934 88.2824 172.533 89.2733 173.513 89.5154L212.6 99.168C213.58 99.4101 214.571 98.8116 214.813 97.8313L221.426 71.0541C221.668 70.0737 221.07 69.0828 220.089 68.8407Z"
        fill="#E4ECFF" stroke="white" stroke-width="1.68074" />
    <path
        d="M204.922 84.7454C203.736 89.5505 200.628 86.5602 195.981 85.4125C191.333 84.2648 186.906 85.3942 188.092 80.5892C195.641 81.1459 187.89 66.8724 199.884 69.6079C205.917 70.9841 206.109 79.9404 204.922 84.7454Z"
        fill="white" />
    <mask id="mask2_2656_589" style="mask-type:alpha" maskUnits="userSpaceOnUse" x="165" y="58" width="62" height="43">
        <path d="M226.889 71.907L172.486 58.472L165.518 86.688L219.921 100.123L226.889 71.907Z" fill="white" />
    </mask>
    <g mask="url(#mask2_2656_589)">
        <path
            d="M198.311 83.5943C198.612 82.3729 197.796 81.1207 196.488 80.7976C195.179 80.4745 193.874 81.2027 193.572 82.4241L192.384 87.2372C192.082 88.4586 192.898 89.7107 194.207 90.0338C195.515 90.3569 196.821 89.6287 197.122 88.4073L198.311 83.5943Z"
            fill="#BBCEFF" />
        <path
            d="M198.179 83.7917L193.522 82.6415L193.103 84.3372C193.349 84.434 193.605 84.5156 193.868 84.5806C195.342 84.9445 196.828 84.7339 198.107 84.0891L198.18 83.7929L198.179 83.7917Z"
            fill="#BBCEFF" />
        <path
            d="M186.303 87.5335C187.358 87.4567 192.235 86.7852 192.329 86.7687L192.8 85.5434C192.8 85.5434 192.751 86.3621 194.982 86.8855C196.992 87.356 197.537 86.7133 197.537 86.7133L197.384 88.0171C197.459 88.0768 200.913 89.6984 202.241 90.9252C204.22 92.7538 204.526 100.845 204.333 101.628C204.098 102.581 194.701 103.811 191.099 102.928C191.075 102.922 191.05 102.916 191.025 102.909C191 102.903 190.976 102.897 190.95 102.891C187.349 101.995 179.096 99.5037 179.331 98.5521C179.524 97.769 182.868 87.7829 186.303 87.5335Z"
            fill="#BBCEFF" />
        <path
            d="M199.538 72.3365L197.856 71.9211C195.729 71.3956 193.578 72.6945 193.052 74.8223L191.925 79.3852C191.4 81.513 192.699 83.664 194.827 84.1894L196.509 84.6048C198.637 85.1303 200.787 83.8313 201.313 81.7035L202.44 77.1406C202.965 75.0128 201.666 72.8619 199.538 72.3365Z"
            fill="#BBCEFF" />
        <path
            d="M192.893 75.8845L192.804 75.8625C192.178 75.7077 191.544 76.0902 191.389 76.7168L191.345 76.8965C191.19 77.5232 191.573 78.1565 192.2 78.3113L192.289 78.3333L192.893 75.886L192.893 75.8845Z"
            fill="#BBCEFF" />
    </g>
    <path
        d="M192.758 74.2795C193.201 73.4424 195.442 70.8501 196.723 70.5575C202.063 69.3368 205.635 76.7827 200.693 84.504C203.229 74.2377 192.315 75.1165 192.758 74.2795Z"
        fill="white" />
    <path
        d="M182.336 68.0731C184.047 68.4955 185.776 67.4513 186.198 65.7406C186.621 64.03 185.577 62.3008 183.866 61.8784C182.155 61.4559 180.426 62.5002 180.004 64.2108C179.581 65.9215 180.625 67.6506 182.336 68.0731Z"
        fill="#BBCEFF" />
    <path
        d="M182.767 66.3178C183.517 66.5031 184.274 66.0521 184.457 65.3103C184.641 64.5686 184.181 63.817 183.43 63.6317C182.68 63.4463 181.923 63.8974 181.739 64.6391C181.556 65.3809 182.016 66.1324 182.767 66.3178Z"
        fill="white" />
</svg>